<svg version="1" xmlns="http://www.w3.org/2000/svg" width="682.667" height="682.667" viewBox="0 0 512.000000 512.000000"><path d="M32.8 155.9C45 167.8 73.9 196.2 97.1 219c23.2 22.8 55 54.2 70.8 69.7 15.7 15.4 36.9 36.3 47.1 46.3 10.2 10.1 19.7 19 21.2 20 3.9 2.4 8.1 1.5 10.2-2.2 1.8-2.9 1.9-9.1 1.5-54.8v-24-24-24-24-24-24c0-.8.1-5.2.2-9.7.1-4.4-.1-8.6-.5-9.1-.4-.7-40.9-1-118.7-1H10.7l22.1 21.7zM264.3 134.8c-.6.5-.9 39.9-.8 109.2 0 101.2.2 108.8 1.8 113.7 2.3 6.5 8 13 14.8 16.8l5.4 3 113.1.3 113 .2V256.3l-.1-121.8-23.2-.1-23.3-.2V195h-7.4c-5 0-7.5-.4-7.8-1.3-.2-.6-.4-14.3-.4-30.4l.1-29.1h-92.1c-50.6 0-92.5.3-93.1.6zM0 261.3V378h221.1l2.4-2.5c4.3-4.2 3.4-7.5-3.9-14.7-10.2-10.1-90.4-88.9-110.6-108.8C44.9 189 4.4 149.2 2.4 147L0 144.5v116.8z"/></svg>