<?xml version="1.0" encoding="UTF-8"?>
<svg width="122px" height="15px" viewBox="0 0 122 15" version="1.1" xmlns="http://www.w3.org/2000/svg" xmlns:xlink="http://www.w3.org/1999/xlink">
    <title>logo</title>
    <defs>
        <path d="M-6.21724894e-14,0.660939278 L13.7716624,14.2026593 C13.9444957,14.3728407 13.9330256,14.6424654 13.8235385,14.7929118 C13.719265,14.9364383 13.5797991,15 13.4288632,15 L-6.21724894e-14,15 L-6.21724894e-14,0.660939278 Z M27.652812,0 L27.652812,3.75014096 L28.6063932,3.75014096 L28.6063932,0 L31.4671368,0 L31.4671368,14.999795 L18.1151752,14.999795 C17.009094,14.999795 16.210359,14.1104436 16.210359,13.1270312 L16.210359,13.1270312 L16.210359,0 L27.652812,0 Z M15.2568299,5.12594446e-05 L15.2568299,13.2032027 C15.2568299,13.3513425 15.1919197,13.4884615 15.0461974,13.5909804 C14.8931761,13.6986252 14.6189368,13.7099023 14.4458427,13.5397209 L0.672355556,5.12594446e-05 L15.2568299,5.12594446e-05 Z M54.8695782,4.68765057 L54.8695782,9.3553356 C54.8695782,9.56806229 54.8797449,9.7605415 54.9005996,9.93328583 C54.9211936,10.1055176 54.9725483,10.2777493 55.055185,10.4502373 C55.1375611,10.6222128 55.2767662,10.7642014 55.4728004,10.875947 C55.6683132,10.98718 55.9261295,11.0427965 56.2459885,11.0427965 C56.6789842,11.0427965 57.03195,10.9110597 57.3051466,10.6478425 C57.5780825,10.3843689 57.7149415,9.94328142 57.7149415,9.32509252 L57.7149415,4.68765057 L60.2821551,4.68765057 L60.2821551,13.1259803 L57.8544073,13.1259803 L57.8544073,12.2289401 L57.8231252,12.2289401 C57.6995611,12.4821617 57.5473218,12.6874558 57.3669286,12.844566 C57.1865355,13.0021888 56.9933688,13.1205981 56.7871679,13.2021006 C56.5807064,13.2828342 56.3823261,13.3364004 56.1920269,13.3615175 C56.0009457,13.3871472 55.8025654,13.3997058 55.5963645,13.3997058 C55.4313517,13.3997058 55.2483517,13.3871472 55.0473645,13.3615175 C54.8463774,13.3364004 54.6271423,13.2856535 54.3901808,13.2095332 C54.1529585,13.133413 53.9186038,13.0244866 53.6865953,12.8830106 C53.4548474,12.7410219 53.2509927,12.558282 53.0755526,12.3353034 C52.7559543,11.9398368 52.5474073,11.562311 52.4493902,11.2024697 C52.3513731,10.843141 52.3023645,10.3538696 52.3023645,9.73542438 L52.3023645,4.68765057 L54.8695782,4.68765057 Z M69.3903675,1.66185682 C70.2461923,1.66185682 71.0475342,1.81666034 71.7951752,2.1257548 C72.5425556,2.43510554 73.189312,2.86081523 73.7359658,3.40288386 C74.2820983,3.94520878 74.7025812,4.57134289 74.9963718,5.28051731 C75.2901624,5.99020432 75.4369274,6.7301344 75.4369274,7.50056385 C75.4369274,8.27073701 75.2901624,9.01092339 74.9963718,9.7200978 C74.7025812,10.4297848 74.2820983,11.0559189 73.7359658,11.5979876 C73.189312,12.1403125 72.5425556,12.5660222 71.7951752,12.8751166 C71.0475342,13.1839548 70.2409786,13.3387583 69.3749872,13.3387583 C68.4985684,13.3387583 67.6891453,13.1813918 66.9472393,12.8671714 C66.204812,12.5532073 65.5653547,12.1254472 65.0293889,11.5826097 C64.4934231,11.0407974 64.0810214,10.4272218 63.7924444,9.74316455 C63.5036068,9.05885097 63.359188,8.35685288 63.359188,7.63717027 C63.359188,7.22171248 63.3928162,6.81394359 63.459812,6.41335103 C63.5270684,6.01327107 63.642812,5.62036743 63.8078248,5.2348964 C63.9725769,4.8294342 64.2100598,4.42140902 64.5192308,4.01082087 C64.8286624,3.60048902 65.2149957,3.21834986 65.6787521,2.86312191 C66.1430299,2.50840655 66.6891624,2.21955958 67.318453,1.9963247 C67.9469615,1.77360241 68.6377735,1.66185682 69.3903675,1.66185682 Z M82.2415556,1.87489107 C83.2102564,1.87489107 83.9425171,1.93563352 84.4372949,2.0573747 C84.9320726,2.17885958 85.375235,2.38697292 85.7670427,2.68068954 C86.2206325,3.0356612 86.5686453,3.48648801 86.8110812,4.03368258 C87.0532564,4.58113345 87.1744744,5.15395774 87.1744744,5.75189916 C87.1744744,6.09636263 87.1254658,6.45646023 87.0277094,6.83142306 C86.9294316,7.2063859 86.7698932,7.5662272 86.5480513,7.91094697 C86.3262094,8.25592303 86.0300726,8.55220262 85.658859,8.80029833 C85.287906,9.04865034 84.8444829,9.21344945 84.3291111,9.29418308 L87.4375043,13.1260829 L84.0971026,13.1260829 L81.4527265,9.49204453 L81.4217051,9.49204453 L81.4217051,13.1260829 L78.6227436,13.1260829 L78.6227436,1.87489107 L82.2415556,1.87489107 Z M93.9632269,1.87486544 C94.4374107,1.87486544 94.8654534,1.88998698 95.2468338,1.92048635 C95.6284748,1.95098572 96.0434833,2.02941267 96.4918594,2.1560235 C96.9402355,2.28289062 97.3862654,2.49331064 97.8294278,2.78702726 C98.2728509,3.08125647 98.6696115,3.47646679 99.0202312,3.97317081 C99.3914449,4.48012671 99.6594278,5.02475831 99.8244406,5.6075782 C99.9891927,6.19065438 100.071829,6.81089366 100.071829,7.46983382 C100.071829,8.27076264 99.9659919,9.00812975 99.754838,9.68219144 C99.5434235,10.3565094 99.2032312,10.9541946 98.7342611,11.476272 C98.2650303,11.9983494 97.6519021,12.4038117 96.8938338,12.6926586 C96.1360261,12.9815056 95.2317141,13.1260572 94.1798551,13.1260572 L90.1747098,13.1260572 L90.1747098,1.87486544 L93.9632269,1.87486544 Z M109.767806,1.87481418 L109.767806,4.39882923 L106.210776,4.39882923 L106.210776,6.14703259 L109.659622,6.14703259 L109.659622,8.67104764 L106.210776,8.67104764 L106.210776,10.6019909 L109.767806,10.6019909 L109.767806,13.126006 L103.411814,13.126006 L103.411814,1.87481418 L109.767806,1.87481418 Z M116.804051,1.87489107 C117.773013,1.87489107 118.505013,1.93563352 118.999791,2.0573747 C119.494829,2.17885958 119.937991,2.38697292 120.329799,2.68068954 C120.783389,3.0356612 121.131402,3.48648801 121.373838,4.03368258 C121.616013,4.58113345 121.737231,5.15395774 121.737231,5.75189916 C121.737231,6.09636263 121.688222,6.45646023 121.590205,6.83142306 C121.492188,7.2063859 121.33265,7.5662272 121.110808,7.91094697 C120.888966,8.25592303 120.592829,8.55220262 120.221615,8.80029833 C119.850402,9.04865034 119.406979,9.21344945 118.891607,9.29418308 L122,13.1260829 L118.659859,13.1260829 L116.015222,9.49204453 L115.984201,9.49204453 L115.984201,13.1260829 L113.1855,13.1260829 L113.1855,1.87489107 L116.804051,1.87489107 Z M41.7582195,1.42941627 L46.4179074,8.73863436 L46.4505905,8.70736781 L46.3204071,1.42941627 L49.269309,1.42941627 L49.269309,13.0613671 L46.5972529,13.0613671 L42.0026567,5.98797302 L41.9702482,6.0036063 L42.0515442,13.0613671 L39.1026423,13.0613671 L39.1026423,1.42941627 L41.7582195,1.42941627 Z M69.4060085,4.18587187 C68.9211368,4.18587187 68.483188,4.27967666 68.0913803,4.46728622 C67.699312,4.65515209 67.3698077,4.90581077 67.1015641,5.21977487 C66.8335812,5.53425156 66.6302479,5.88640394 66.4910427,6.27674462 C66.3518376,6.66682899 66.282235,7.06460228 66.282235,7.46980819 C66.282235,7.90602606 66.3539231,8.32404683 66.4986026,8.72438309 C66.6430214,9.12497565 66.8541752,9.48199768 67.1328462,9.79621808 C67.4109957,10.1104385 67.7457137,10.3587905 68.1377821,10.5415304 C68.5295897,10.7235014 68.9625855,10.8147432 69.4367692,10.8147432 C69.9318077,10.8147432 70.3747094,10.7160688 70.7667778,10.5182074 C71.1583248,10.3208585 71.4831368,10.0571287 71.740953,9.72804302 C71.9987692,9.39844479 72.1919359,9.04116646 72.3209744,8.65569544 C72.4497521,8.27073701 72.5144017,7.89064823 72.5144017,7.51568539 C72.5144017,7.14072255 72.4497521,6.75525153 72.3209744,6.35978492 C72.1919359,5.9648309 71.9964231,5.60217032 71.7333932,5.27308469 C71.4703632,4.94399906 71.1429444,4.68001292 70.7513974,4.48240776 C70.3595897,4.2848026 69.910953,4.18587187 69.4060085,4.18587187 Z M94.365462,4.3986242 L93.0974962,4.3986242 L93.0974962,10.6020422 L94.3500816,10.6020422 C94.8756201,10.6020422 95.32165,10.518233 95.6879107,10.3511272 C96.05365,10.1837651 96.3422269,9.95822355 96.5539021,9.67450253 C96.7647953,9.3907815 96.9170346,9.06656551 97.009838,8.70134197 C97.1026415,8.33663102 97.1490432,7.94116441 97.1490432,7.51571102 C97.1490432,7.16099566 97.1049876,6.79884769 97.0176585,6.4284982 C96.9298081,6.05866131 96.7879962,5.7267564 96.5922226,5.43252719 C96.3860218,5.12855869 96.1104791,4.88020668 95.7648124,4.68772746 C95.4194064,4.49524825 94.9533038,4.3986242 94.365462,4.3986242 Z M82.4889444,4.39864983 L81.4217051,4.39864983 L81.4217051,7.53085819 L82.4579231,7.53085819 C82.8598974,7.53085819 83.1925299,7.47754836 83.4552991,7.37092872 C83.7183291,7.26456537 83.9138419,7.12795895 84.043141,6.96059686 C84.1716581,6.79349108 84.2595085,6.62100304 84.3056496,6.44364537 C84.3520513,6.26654399 84.3752521,6.09174928 84.3752521,5.91900495 C84.3752521,5.42255723 84.2052863,5.04477512 83.865094,4.78642752 C83.5249017,4.52782363 83.0660983,4.39864983 82.4889444,4.39864983 Z M117.05144,4.39864983 L115.984201,4.39864983 L115.984201,7.53085819 L117.020419,7.53085819 C117.422654,7.53085819 117.755026,7.47754836 118.018056,7.37092872 C118.281085,7.26456537 118.476598,7.12795895 118.605637,6.96059686 C118.734415,6.79349108 118.822004,6.62100304 118.868406,6.44364537 C118.914808,6.26654399 118.938009,6.09174928 118.938009,5.91900495 C118.938009,5.42255723 118.768043,5.04477512 118.42785,4.78642752 C118.087397,4.52782363 117.628855,4.39864983 117.05144,4.39864983 Z" id="path-1"></path>
    </defs>
    <g id="Symbols" stroke="none" stroke-width="1" fill="none" fill-rule="evenodd">
        <g id="nav-/-1440-active-dropdown" transform="translate(-24.000000, -64.000000)">
            <g id="Group" transform="translate(0.000000, 40.000000)">
                <g transform="translate(24.000000, 24.000000)" id="logo">
                    <mask id="mask-2" fill="white">
                        <use xlink:href="#path-1"></use>
                    </mask>
                    <use id="Mask" fill="#1E1E1E" xlink:href="#path-1"></use>
                    <rect id="🎨" fill="#323232" mask="url(#mask-2)" x="0" y="0" width="122" height="15"></rect>
                </g>
            </g>
        </g>
    </g>
</svg>